<svg width="1261" height="773" viewBox="0 0 1261 773" fill="none" xmlns="http://www.w3.org/2000/svg">
<g filter="url(#filter0_f_834_1403)">
<path d="M-5 626.207C22.0537 661.724 97.5717 739.261 214.085 739.261C253.464 739.261 306.201 739.261 387.86 668.727C422.029 639.213 446.318 628.372 496.406 688.237C525.286 722.753 550.68 760.771 604.455 754.268C652.256 748.487 674.581 706.017 691.591 639.213C702.546 596.193 732.108 538.166 789.184 575.183C827.026 599.726 863.972 625.007 908.187 596.193C959.971 562.447 1050.49 443.121 1077.98 187" stroke="#70ED8D" stroke-opacity="0.5" stroke-width="15"/>
</g>
<path d="M387.86 668.727L384.591 664.943L387.86 668.727ZM496.406 688.237L492.572 691.445L496.406 688.237ZM604.455 754.268L603.855 749.304L604.455 754.268ZM691.591 639.213L686.746 637.98L691.591 639.213ZM789.184 575.183L791.905 570.988L789.184 575.183ZM908.187 596.193L905.457 592.004L908.187 596.193ZM1081.78 167.25C1079.98 165.151 1076.83 164.906 1074.73 166.701L1040.53 195.954C1038.43 197.749 1038.19 200.905 1039.98 203.003C1041.78 205.102 1044.94 205.348 1047.03 203.552L1077.43 177.55L1103.43 207.945C1105.23 210.043 1108.38 210.289 1110.48 208.494C1112.58 206.699 1112.83 203.542 1111.03 201.444L1081.78 167.25ZM-8.97752 629.237C18.4483 665.242 95.2605 744.261 214.085 744.261V734.261C99.8829 734.261 25.6591 658.206 -1.02248 623.177L-8.97752 629.237ZM214.085 744.261C233.818 744.261 257.509 744.278 286.604 735.218C315.697 726.159 349.886 708.134 391.128 672.511L384.591 664.943C344.174 699.854 311.166 717.096 283.631 725.67C256.098 734.243 233.731 734.261 214.085 734.261V744.261ZM391.128 672.511C408.333 657.65 421.506 649.019 435.838 649.954C450.215 650.892 467.624 661.628 492.572 691.445L500.241 685.028C475.1 654.98 455.321 641.204 436.489 639.975C417.612 638.744 401.555 650.291 384.591 664.943L391.128 672.511ZM492.572 691.445C506.739 708.377 520.794 727.145 538.02 740.577C555.586 754.274 576.671 762.664 605.055 759.231L603.855 749.304C578.464 752.374 559.965 745.007 544.169 732.691C528.035 720.111 514.953 702.612 500.241 685.028L492.572 691.445ZM605.055 759.231C630.578 756.145 649.306 743.157 663.676 722.477C677.887 702.026 687.896 673.989 696.437 640.447L686.746 637.98C678.277 671.241 668.618 697.841 655.464 716.771C642.468 735.473 626.132 746.61 603.855 749.304L605.055 759.231ZM696.437 640.447C701.845 619.207 711.687 595.063 726.555 580.791C733.882 573.758 742.243 569.295 751.809 568.504C761.394 567.712 772.854 570.552 786.463 579.378L791.905 570.988C776.976 561.306 763.338 557.517 750.985 558.538C738.613 559.561 728.197 565.353 719.63 573.577C702.709 589.819 692.292 616.199 686.746 637.98L696.437 640.447ZM786.463 579.378C805.176 591.515 824.537 604.454 844.873 610.49C865.637 616.654 887.467 615.663 910.917 600.382L905.457 592.004C884.691 605.536 865.941 606.313 847.718 600.904C829.067 595.367 811.033 583.395 791.905 570.988L786.463 579.378ZM910.917 600.382C964.481 565.476 1062.14 438.259 1082.96 170.888L1072.99 170.112C1052.31 435.741 955.46 559.419 905.457 592.004L910.917 600.382Z" fill="#70ED8D"/>
<g filter="url(#filter1_f_834_1403)">
<ellipse cx="1076.59" cy="185" rx="84.4059" ry="85" fill="#71F091" fill-opacity="0.5"/>
</g>
<defs>
<filter id="filter0_f_834_1403" x="-20.9663" y="176.2" width="1116.4" height="596.301" filterUnits="userSpaceOnUse" color-interpolation-filters="sRGB">
<feFlood flood-opacity="0" result="BackgroundImageFix"/>
<feBlend mode="normal" in="SourceGraphic" in2="BackgroundImageFix" result="shape"/>
<feGaussianBlur stdDeviation="5" result="effect1_foregroundBlur_834_1403"/>
</filter>
<filter id="filter1_f_834_1403" x="892.188" y="0" width="368.812" height="370" filterUnits="userSpaceOnUse" color-interpolation-filters="sRGB">
<feFlood flood-opacity="0" result="BackgroundImageFix"/>
<feBlend mode="normal" in="SourceGraphic" in2="BackgroundImageFix" result="shape"/>
<feGaussianBlur stdDeviation="50" result="effect1_foregroundBlur_834_1403"/>
</filter>
</defs>
</svg>
